<?xml version="1.0" encoding="utf-8"?>
<!-- Generator: Adobe Illustrator 21.0.2, SVG Export Plug-In . SVG Version: 6.00 Build 0)  -->
<svg version="1.1" id="Layer_1" xmlns="http://www.w3.org/2000/svg" xmlns:xlink="http://www.w3.org/1999/xlink" x="0px" y="0px"
	 viewBox="0 0 512 512" style="enable-background:new 0 0 512 512;" xml:space="preserve">
<style type="text/css">
	.st0{fill:#7182B1;}
	.st1{opacity:0.1;}
	.st2{fill:#51331E;}
	.st3{fill:#3F2717;}
	.st4{fill:#FCD088;}
	.st5{fill:#DDAB62;}
	.st6{fill:#FFEDB5;}
	.st7{fill:#E8CF89;}
	.st8{fill:#273B7A;}
	.st9{fill:#121149;}
	.st10{fill:#366695;}
	.st11{fill:#6D462B;}
	.st12{fill:#5E3B24;}
	.st13{fill:#FFFFFF;}
	.st14{fill:#CCCCCC;}
	.st15{fill:#DDDDDD;}
	.st16{fill:#CECECE;}
</style>
<circle class="st0" cx="256" cy="256" r="256"/>
<path class="st1" d="M230.1,413.4l57.8,96.6c110.9-13.8,199.7-98.5,219.8-207.2L325.8,120.9L230.1,413.4z"/>
<path class="st2" d="M166.9,211.2c0,0-0.6,96,48.3,161.5h81.6c0,0,41.9-49.4,37.9-119.5C330.7,183,166.9,211.2,166.9,211.2z"/>
<path class="st3" d="M334.7,253.1c-1.9-33.1-39.4-44.3-78.4-46.9v166.4h40.5C296.8,372.7,338.7,323.2,334.7,253.1z"/>
<rect x="214.6" y="295.3" class="st4" width="82.7" height="101.1"/>
<rect x="256.3" y="295.3" class="st5" width="41.1" height="101.1"/>
<path class="st6" d="M347.5,205.4c0.5-4.2,0.7-8.4,0.7-12.5c0-54-41.3-97.7-92.2-97.7s-92.2,43.8-92.2,97.7c0,4.1,0.2,8.3,0.7,12.5
	c-8.9,2.3-13.2,16.1-9.5,30.8c3.7,14.8,14,24.9,23,22.7c0.8-0.2,1.6-0.5,2.3-0.9c16.7,33.5,44.4,60.6,75.7,60.6s59-27.1,75.7-60.6
	c0.7,0.4,1.5,0.7,2.3,0.9c9,2.3,19.3-7.9,23-22.7C360.7,221.5,356.5,207.8,347.5,205.4z"/>
<path class="st7" d="M347.5,205.4c0.5-4.2,0.7-8.4,0.7-12.5c0-53.9-41.1-97.6-91.9-97.7v223.4c31.2-0.2,58.8-27.2,75.4-60.6
	c0.7,0.4,1.5,0.7,2.3,0.9c9,2.3,19.3-7.9,23-22.7C360.7,221.5,356.5,207.8,347.5,205.4z"/>
<path class="st8" d="M216.1,373.9c0,0,34.8,24.4,84.5,0l-44.8,115.8L216.1,373.9z"/>
<path class="st9" d="M256.3,386.9v103.5l44.2-114.3C283.8,384.3,268.9,387,256.3,386.9z"/>
<path class="st10" d="M357.8,362l-45.2-9l-8-11.7c-1.5-2.2-4.3-3-6.8-2L256,479.5l-41.5-140.2c-2.4-1.1-5.2-0.3-6.8,1.9l-8.2,11.7
	l-45.2,9c-23,4.6-39.6,24.8-39.6,48.3v59.2C155.1,496.3,203.7,512,256,512c52.3,0,100.9-15.7,141.4-42.6v-59.2
	C397.4,386.8,380.8,366.6,357.8,362z"/>
<path class="st8" d="M397.4,410.3c0-23.5-16.6-43.7-39.6-48.3l-45.2-9l-8-11.7c-1.5-2.2-4.3-3-6.8-2l-41.5,139.3V512
	c52.1-0.1,100.6-15.7,141.1-42.5L397.4,410.3L397.4,410.3L397.4,410.3z"/>
<path class="st11" d="M224.4,152c0,0,118.9,32.2,97.7,167.2c0,0,83.3-70.1,16.7-180.4c-52.2-86.4-157.4-54-164.3-9.2
	c0,0-24.5,16.1-9.9,75.9C164.5,205.4,201.4,194.5,224.4,152z"/>
<path class="st12" d="M338.7,138.8c-21.9-36.2-53.1-51.6-82.5-53.9v81.5c33.6,20.1,79.7,64.4,65.8,152.8
	C322.1,319.2,405.4,249.1,338.7,138.8z"/>
<path class="st13" d="M257.2,389.8c-22.1,0-43.9-10.3-65-30.6c-2.2-2.1-2.2-5.6-0.1-7.8c2.1-2.2,5.6-2.2,7.8-0.1
	c20.2,19.5,40.8,28.7,61.3,27.4c30.4-2,50.5-26.6,50.7-26.9c1.9-2.4,5.3-2.8,7.7-0.9c2.4,1.9,2.8,5.3,0.9,7.7
	c-0.9,1.2-23.3,28.7-58.5,31C260.2,389.7,258.7,389.8,257.2,389.8z"/>
<path class="st14" d="M319.4,351c-2.4-1.9-5.8-1.5-7.7,0.9c-0.2,0.2-20.2,24.9-50.7,26.9c-1.6,0.1-3.2,0.1-4.8,0.1v11
	c0.3,0,0.6,0,0.9,0c1.5,0,3.1,0,4.6-0.1c35.2-2.3,57.6-29.8,58.5-31C322.2,356.3,321.8,352.9,319.4,351z"/>
<path class="st15" d="M230.5,376.2l-11.9-1.3c0,0,0,0.1-0.1,0.2l-3.6-5.3c0,0-40.2,6.6-53.8,46.5c0,0,30.9,3.3,51.6-14.7
	c0.4,6.1,2.2,12.8,6.2,19.5C219,421.1,241.3,399.8,230.5,376.2z"/>
<circle class="st16" cx="225.7" cy="370.4" r="14"/>
</svg>
